<svg width="500" height="324" viewBox="0 0 500 324" fill="none" xmlns="http://www.w3.org/2000/svg">
<path d="M19.2886 56.5555C18.9669 69.9746 19.6103 83.7133 20.897 96.8129C22.1838 110.232 24.114 123.332 27.3309 136.112C30.5478 148.892 34.7298 161.353 39.8768 173.174C41.1636 176.05 42.772 178.925 44.0588 181.801C45.6672 184.676 46.954 187.552 48.5625 190.108C51.4577 195.539 55.318 200.332 58.8566 205.124C62.7169 209.917 66.8988 214.39 71.4025 218.224C75.9062 222.058 80.7316 225.892 85.8786 228.768C96.1727 234.838 107.432 238.672 118.691 239.631L120.943 239.95H123.195C124.482 239.95 126.09 239.95 127.377 239.95L131.559 239.631H133.811L136.062 239.311L140.244 238.672C141.531 238.353 143.14 238.033 144.426 237.714C147.322 237.075 149.895 236.116 152.79 235.158C163.728 231.324 174.344 225.253 183.994 217.905C203.617 203.207 220.345 183.398 235.143 162.631C242.22 152.087 248.976 141.224 254.445 130.041C257.018 124.29 259.913 118.539 262.165 112.788C264.417 107.037 266.347 101.286 267.956 95.8544C269.564 90.4228 270.529 84.9913 270.851 79.5597C271.173 77.0037 271.173 74.4477 270.851 71.8917C270.851 69.6551 270.529 67.4186 269.886 65.5016C269.564 63.5846 268.921 61.3481 267.956 59.7506C266.991 57.8335 266.026 56.236 265.06 54.958C264.095 53.68 262.809 52.402 261.522 51.4435C260.878 50.8045 260.235 50.485 259.592 50.1655C258.948 49.846 257.983 49.207 257.34 49.207C255.731 48.5679 253.801 48.2484 252.193 47.9289C250.584 47.6094 248.654 47.9289 247.046 47.9289C245.437 48.2484 243.507 48.8874 241.577 49.5265C239.647 50.485 238.038 51.4435 236.108 53.041C232.57 55.9165 229.031 59.7505 226.136 63.9041C225.492 64.8626 224.527 66.1406 223.884 67.4186C223.241 68.6966 222.276 69.9746 221.632 71.2527L219.702 75.0867L218.737 77.0037L217.772 78.9207C212.947 89.7838 209.73 101.925 207.799 114.066C205.869 126.527 205.226 138.987 205.869 151.767C207.156 177.328 211.981 203.527 221.632 225.892C226.458 237.075 232.57 247.299 239.969 255.925C241.899 258.162 243.829 260.079 245.759 261.996L248.976 264.552C249.619 264.871 249.941 265.511 250.584 265.83L252.193 267.108C253.158 267.747 254.445 268.706 255.41 269.345L258.627 271.262C259.592 271.901 260.878 272.54 262.165 273.179C263.452 273.818 264.417 274.457 265.704 274.776C285.005 283.083 308.81 281.486 330.685 272.859C336.154 270.623 341.623 268.386 346.448 265.191C349.022 263.913 351.595 262.315 354.169 260.718C356.742 259.12 358.994 257.523 361.568 255.606C371.218 248.577 379.904 239.95 387.625 230.365C395.667 221.1 402.744 210.556 408.856 199.693C415.29 188.83 420.759 177.008 425.906 164.867C446.816 116.622 459.683 64.2236 472.229 10.8666V10.5471C473.838 3.19851 481.237 -1.27453 488.636 0.322984C495.069 1.9205 499.251 7.67155 499.251 14.0616C498.93 21.0907 498.608 28.1197 498.286 35.1488C497.965 38.6633 497.965 42.1779 497.643 45.6924C497.321 49.207 497 52.7215 496.678 56.236C496.035 63.2651 495.069 70.2942 494.104 77.3232L492.496 87.8668L490.566 98.4104C485.419 126.527 477.698 154.323 466.761 181.481C461.292 194.9 455.18 208.319 447.781 221.419C440.382 234.519 432.018 246.979 422.046 259.12C412.073 270.942 400.814 281.805 387.946 291.39C375.079 300.975 360.924 308.324 345.805 314.075C330.685 319.507 314.601 323.021 297.873 323.021C289.509 323.341 281.145 322.382 272.781 320.785L266.347 319.507C264.417 318.868 262.165 318.229 260.235 317.59C256.053 316.311 252.193 314.394 248.011 312.797C246.081 311.838 244.151 310.88 242.22 309.921C240.29 308.963 238.36 308.004 236.752 306.726L231.605 304.49C229.996 303.212 228.388 301.934 226.458 300.656L223.884 298.739C222.919 298.1 222.276 297.461 221.632 296.502L217.129 292.349C214.233 289.154 211.338 286.278 208.765 283.083C198.149 270.303 190.75 256.245 184.959 241.867C179.491 227.49 175.63 212.793 173.057 198.095C170.483 183.398 168.875 168.701 168.553 154.004C168.231 139.307 168.875 124.29 171.448 109.274C173.7 94.2569 177.882 79.2402 184.316 64.8626L185.603 62.3066L186.89 59.7506L189.463 54.319C190.428 52.7215 191.393 50.8045 192.358 49.207C193.323 47.6094 194.288 45.6924 195.575 44.0949C200.401 37.0658 206.191 30.3563 213.268 24.2857C216.807 21.4102 220.989 18.8542 225.171 16.2981C229.674 14.0616 234.5 12.1446 239.325 11.1861C244.472 10.2276 249.619 9.58857 254.766 9.90808C259.913 10.2276 265.06 10.8666 269.886 12.4641C272.459 13.1031 274.711 14.3811 277.285 15.3396C279.537 16.6176 282.11 17.5761 284.04 19.1737C288.544 22.0492 292.404 25.5637 295.943 29.0783C299.481 32.9123 302.377 37.0658 304.628 41.2194C307.202 45.6924 308.81 50.1655 310.419 54.6385C312.027 59.1115 312.671 63.9041 313.314 68.6966C313.636 70.9332 313.636 73.1697 313.957 75.4062C313.957 77.6427 313.957 79.8792 313.957 81.7963C313.636 90.4228 312.671 98.7299 310.741 106.398C309.132 114.386 306.559 121.734 303.985 128.763C302.698 132.278 301.09 135.792 299.803 139.307C298.195 142.821 296.908 146.016 295.299 149.531C288.544 163.27 280.823 176.05 272.138 188.191C263.452 200.332 253.801 211.514 242.864 222.378C231.926 232.921 220.345 242.826 207.156 251.133C193.967 259.44 179.491 266.15 163.728 270.303C159.868 271.262 156.007 272.22 151.825 272.859C149.895 273.179 147.965 273.498 145.713 273.818L139.601 274.137L136.706 274.457H133.489H127.377C125.447 274.457 123.195 274.137 121.265 273.818L118.048 273.498L115.152 272.859C98.7462 270.303 83.6268 263.913 70.1158 255.286C63.3602 251.133 57.2481 246.021 51.4577 240.589C45.9889 235.158 40.8419 229.407 36.0165 223.017C31.5128 216.627 27.3309 210.236 24.114 203.207C22.1838 200.332 20.897 196.817 19.2886 193.622C18.0018 190.108 16.3934 186.913 15.1066 183.398C10.2812 169.34 6.74264 155.282 4.16911 141.224C-0.65625 112.788 -0.97794 84.0328 1.59559 55.9165C1.91728 51.124 6.42095 47.6094 11.2463 47.9289C16.0717 48.2484 19.2886 52.0825 19.2886 56.5555Z" fill="url(#paint0_linear_632_12944)"/>
<defs>
<linearGradient id="paint0_linear_632_12944" x1="12.094" y1="202.194" x2="515.234" y2="134.942" gradientUnits="userSpaceOnUse">
<stop offset="0.0625" stop-color="#F06650"/>
<stop offset="0.25" stop-color="#F06650"/>
<stop offset="0.677083" stop-color="#F9B456"/>
<stop offset="0.875651" stop-color="#FFC863"/>
<stop offset="1" stop-color="#FFCC6E"/>
</linearGradient>
</defs>
</svg>
